<svg enable-background="new 0 0 706.3 816.1" viewBox="0 0 706.3 816.1" xmlns="http://www.w3.org/2000/svg"><path d="m271.8 368.1h-271.5s-14.3 177.9 141.8 325.1c142.2 134 312.9 122.6 312.9 122.6v-264.1c-89.7 0-183.2-74.6-183.2-183.6z" fill="#f4b500"/><path d="m428.3 211.1v-211s-150.4-8.2-266.4 114.1c-90.9 94.5-99 213.7-99 213.7s168.4 31.5 208.8 40.2c-1.1-89 68.6-157 156.6-157z" fill="#4481f6"/><path d="m63 327.9s-3.6 21.7-1.5 40.2h210.3z" fill="#3566c5"/><path d="m428.3 211.1 40.5-145.8s-26.2-3.4-40.5-1.8z" fill="#af362b"/><path d="m428.3 211.1s129.9-2.7 135.9 137h142s12.8-228.1-237.4-282.8c-10 36.3-40.5 145.8-40.5 145.8z" fill="#db4533"/><path d="m455.1 551.7 48.9-108.7s57.7-27.4 60.3-95c18.7 8.2 63.7 26.8 84.3 35.9-4.5 34.8-51 163.8-193.5 167.8z" fill="#ccc"/><path d="m504 443s-20.5 14-48.9 11.6v97.1zm60.2-95h89.3s2.1 13-5 35.9c-18.7-8.1-84.3-35.9-84.3-35.9z" fill="#b7b7b7"/></svg>