<svg width="158" height="27" viewBox="0 0 158 27" fill="none" xmlns="http://www.w3.org/2000/svg">
<path fill-rule="evenodd" clip-rule="evenodd" d="M13.6689 12.2176C11.1476 15.2771 9.68861 13.549 10.0852 12.3592C7.6914 15.1921 6.23244 13.549 6.89818 12.0901C3.98026 15.6737 1.99721 14.3423 2.91791 12.0901C2.57854 12.5158 2.11744 12.8279 1.5961 12.9848C1.07476 13.1418 0.517972 13.136 0 12.9683L0 20.1214H16.7143V12.6992C15.2553 14.2856 13.5414 13.634 13.6689 12.2176Z" fill="#1B1B1B"/>
<path fill-rule="evenodd" clip-rule="evenodd" d="M13.7964 7.11818C13.5414 5.70172 13.1306 3.67618 11.9408 3.01044C12.7482 5.65922 9.02287 7.11818 8.49878 9.63949C8.35713 7.78392 10.6093 6.19748 10.6093 4.07279C10.6093 2.47218 9.68861 1.01322 8.62626 0.885742C8.81856 1.09651 8.94618 1.35813 8.9939 1.63942C9.04161 1.92071 9.00742 2.20979 8.89539 2.47218C8.08801 4.866 4.51852 3.80366 3.45617 7.65644C3.18704 6.32496 5.04261 4.73852 3.85278 2.74131C4.10774 4.99349 0 4.866 0 7.25983V11.2401H16.7143V3.53453C16.3177 4.73852 14.1646 5.65922 13.7964 7.11818Z" fill="#1B1B1B"/>
<path fill-rule="evenodd" clip-rule="evenodd" d="M36.8284 3.80375C35.4119 3.80375 33.9105 3.67627 33.1172 3.67627L32.9756 3.80375V4.07288C32.9756 4.34201 32.9756 4.46949 33.2447 4.46949C35.2419 4.59697 35.2419 4.99358 35.2419 6.59418V10.9711H25.0859V5.65932C25.0859 4.46949 26.0066 4.46949 26.9415 4.46949C27.3381 4.46949 27.6072 4.46949 27.6072 4.34201V3.93123C27.6072 3.71876 27.4656 3.71876 26.9131 3.71876C25.9783 3.71876 25.0576 3.84624 23.9952 3.84624C22.9329 3.84624 21.6297 3.71876 20.964 3.71876C20.6949 3.71876 20.5674 3.71876 20.5674 3.84624V4.24285L20.6949 4.51198C22.6921 4.51198 22.9612 5.3052 22.9612 6.36755V18.3083C22.9612 19.5123 21.8989 19.6398 20.6949 19.6398H20.5674V20.1639C20.7226 20.277 20.9148 20.3276 21.1056 20.3055H26.6723C27.2106 20.3055 27.4656 20.3055 27.4656 20.1639V19.8664C27.4656 19.5973 27.3381 19.5973 27.0689 19.5973C25.3409 19.5973 25.0859 19.2007 25.0859 17.8692V11.9059H35.1711V17.4726C35.1711 19.0591 35.0295 19.5973 32.7773 19.5973H32.6498V20.1214C32.6498 20.2631 32.7773 20.2631 33.443 20.2631H38.8823C39.548 20.2631 39.6755 20.2631 39.6755 20.1214C39.6755 19.9798 39.6755 19.5973 39.548 19.5973C38.2165 19.5973 37.2816 19.3282 37.2816 17.7417V6.05593C37.2816 4.63946 37.8199 4.46949 39.1514 4.46949C39.4063 4.46949 39.6755 4.46949 39.6755 4.20036V3.80375L39.548 3.71876C38.8823 3.71876 38.2448 3.80375 36.8284 3.80375Z" fill="#1B1B1B"/>
<path fill-rule="evenodd" clip-rule="evenodd" d="M48.4287 19.0593C47.7772 19.0593 47.7772 18.1386 47.7772 17.6429V12.5578C47.7772 10.7022 46.7148 9.72485 44.7176 9.72485C44.7176 9.72485 44.5901 9.72485 44.321 9.97982L42.1963 11.1838C41.6722 11.4388 40.8648 11.977 40.8648 12.7703C40.8972 12.9951 40.9446 13.2175 41.0065 13.436L42.5929 12.6428C42.5234 12.5122 42.4893 12.3657 42.4937 12.2178C42.4937 11.5521 43.6836 11.2971 44.2218 11.2971C45.9358 11.2971 46.2049 12.3595 46.2049 13.6768V14.7391L43.0178 15.9431C41.0348 16.7363 40.6382 17.5296 40.6382 17.9262C40.6382 18.9885 41.3039 20.7591 42.7629 20.7591C44.1326 20.4985 45.358 19.742 46.2049 18.6344C46.2049 19.3001 46.3465 20.7591 47.933 20.7591C48.9953 20.7591 49.5194 19.8242 49.7885 18.6344L49.3919 18.5069C49.0945 18.9319 48.967 19.0593 48.4287 19.0593ZM46.0491 17.8837L45.9074 18.1528C45.2559 18.6769 44.491 19.4843 43.6552 19.4843C42.8195 19.4843 42.5929 18.2803 42.5929 17.6146C42.5929 16.9488 43.3861 16.5522 43.7969 16.4247L46.0491 15.3624V17.8837Z" fill="#1B1B1B"/>
<path fill-rule="evenodd" clip-rule="evenodd" d="M57.3245 9.78123C55.908 9.78123 54.8032 11.4951 54.0099 12.43V9.90871C54.0124 9.88592 54.0087 9.86288 53.9991 9.84203C53.9896 9.82119 53.9746 9.80329 53.9558 9.79025C53.9369 9.7772 53.9149 9.76947 53.892 9.76788C53.8691 9.7663 53.8463 9.77091 53.8258 9.78123C53.4516 9.8517 53.0923 9.98585 52.7635 10.1778L51.0354 10.9711C50.7662 11.0985 50.6388 11.0985 50.6388 11.3677C50.6388 11.6368 51.3045 11.7643 51.432 11.7643C51.6239 11.8353 51.7901 11.9624 51.9088 12.1292C52.0276 12.2959 52.0934 12.4945 52.0977 12.6991V17.8834C52.0977 19.2149 51.9561 19.6115 50.8937 19.6115C50.3696 19.6115 50.3696 19.739 50.3696 19.8806V20.1356C50.3696 20.2772 50.3696 20.2772 50.4971 20.2772H55.6814C55.8088 20.2772 55.8088 20.2772 55.8088 20.0081C55.8088 19.739 55.8088 19.6115 55.6814 19.6115C53.9533 19.6115 53.9533 18.8183 53.9533 17.8834V13.3649L54.2224 12.9683C54.7465 12.3025 55.4122 11.5518 56.078 11.5518C56.7437 11.5518 56.9987 11.9626 57.6644 11.9626C57.9059 11.9432 58.1326 11.8384 58.3038 11.6672C58.4751 11.4959 58.5799 11.2692 58.5993 11.0277C58.6559 10.1778 58.0752 9.78123 57.3245 9.78123Z" fill="#1B1B1B"/>
<path fill-rule="evenodd" clip-rule="evenodd" d="M65.9506 9.78128C64.7101 10.0913 63.5381 10.6292 62.4944 11.3677C62.3926 10.9028 62.3497 10.4269 62.3669 9.95126C62.3669 9.82378 62.3669 9.68213 62.2394 9.68213L59.4065 11.0136C59.1374 11.1411 59.1374 11.1411 59.1374 11.2827C59.1374 11.4244 59.1374 11.5377 59.279 11.5377L60.0722 11.8068C60.5963 12.076 60.5963 12.3451 60.5963 13.2233V23.8468C60.5963 25.7023 60.4688 25.7023 58.7408 25.8298C58.6133 25.8298 58.6133 25.9715 58.6133 26.0989V26.2264C58.6133 26.4955 58.6133 26.4955 58.8824 26.4955C59.534 26.4955 60.4688 26.3681 61.5312 26.3681C62.5935 26.3681 63.5142 26.4955 64.5766 26.4955C64.6544 26.4256 64.7046 26.3301 64.7182 26.2264V25.9715C64.6456 25.8972 64.5514 25.8477 64.4491 25.8298C62.8627 25.8298 62.4519 25.7023 62.4519 24.1017V20.3906C62.9098 20.5434 63.3863 20.6339 63.8684 20.6597C65.7381 20.6597 70.3841 19.2433 70.3841 14.6822C70.4062 13.4549 69.9602 12.2652 69.1367 11.3548C68.3132 10.4445 67.174 9.88188 65.9506 9.78128ZM64.7607 19.5974C63.6984 19.5974 62.4944 19.2008 62.4944 17.9968V12.0335C63.1843 11.5147 64.0251 11.2361 64.8882 11.2402C65.4042 11.2794 65.9073 11.4209 66.368 11.6566C66.8287 11.8924 67.2379 12.2175 67.5715 12.6131C67.9051 13.0088 68.1566 13.4669 68.3112 13.9608C68.4658 14.4547 68.5204 14.9744 68.4719 15.4896C68.5348 16.0105 68.4852 16.5389 68.3265 17.039C68.1678 17.5391 67.9036 17.9994 67.5519 18.3888C67.2001 18.7781 66.769 19.0875 66.2875 19.2959C65.806 19.5044 65.2853 19.6072 64.7607 19.5974Z" fill="#1B1B1B"/>
<path fill-rule="evenodd" clip-rule="evenodd" d="M77.0982 19.0592C76.0662 18.9935 75.1006 18.5273 74.4074 17.7599C73.7142 16.9926 73.348 15.9849 73.3871 14.9515C73.3663 14.6345 73.4097 14.3165 73.5145 14.0166H80.1436V13.2234C80.142 12.7598 80.0472 12.3013 79.8647 11.8751C79.6823 11.4489 79.4159 11.0637 79.0816 10.7426C78.7472 10.4214 78.3516 10.1708 77.9184 10.0057C77.4852 9.84058 77.0232 9.7643 76.5599 9.78141C73.5145 9.78141 71.659 12.9684 71.659 15.7447C71.614 16.976 72.0428 18.1777 72.8569 19.1026C73.6711 20.0274 74.8088 20.605 76.0358 20.7165C76.9186 20.698 77.7799 20.4406 78.5282 19.9717C79.2764 19.5028 79.8836 18.8399 80.2852 18.0536L79.747 17.7986C79.4297 18.1955 79.0264 18.5152 78.5676 18.7335C78.1087 18.9519 77.6063 19.0633 77.0982 19.0592ZM76.1633 10.5605C76.4354 10.541 76.7086 10.5778 76.9658 10.6687C77.223 10.7596 77.4586 10.9026 77.658 11.0887C77.8575 11.2748 78.0163 11.5001 78.1247 11.7504C78.2331 12.0007 78.2887 12.2707 78.288 12.5435C78.2806 12.7324 78.2115 12.9136 78.0913 13.0594C77.971 13.2053 77.8063 13.3077 77.6223 13.3509L73.6562 13.4925C73.7837 12.2177 74.846 10.5746 76.1633 10.5746V10.5605Z" fill="#1B1B1B"/>
<path fill-rule="evenodd" clip-rule="evenodd" d="M87.9767 9.78149C86.5603 9.78149 85.4554 11.4954 84.7897 12.4303H84.6622L84.7897 9.90898C84.7213 9.83931 84.6315 9.79445 84.5347 9.78149C84.2132 9.88907 83.9007 10.0217 83.5999 10.1781L81.8718 10.9713C81.6027 11.0988 81.4752 11.0988 81.4752 11.3679C81.4752 11.6371 82.1409 11.7645 82.1409 11.7645C82.3588 11.8089 82.5555 11.9251 82.6993 12.0947C82.8432 12.2642 82.9259 12.4772 82.9341 12.6994V17.8837C82.9341 19.2151 82.665 19.6118 81.6027 19.6118C81.2061 19.6118 81.2061 19.7392 81.2061 19.8809V20.2775H86.5178C86.6453 20.2775 86.6453 20.2775 86.6453 20.0084C86.6453 19.7392 86.6453 19.6118 86.5178 19.6118C84.6622 19.6118 84.6622 18.8185 84.6622 17.8837V13.3651L85.0588 12.9685C85.4554 12.3028 86.2487 11.5521 86.7869 11.5521C87.5801 11.5521 87.7076 11.9628 88.3734 11.9628C88.4967 11.9648 88.6191 11.9419 88.7334 11.8956C88.8476 11.8493 88.9515 11.7805 89.0387 11.6933C89.1259 11.6061 89.1947 11.5023 89.241 11.388C89.2873 11.2737 89.3101 11.1513 89.3082 11.028C89.3082 10.1781 88.9116 9.78149 87.9767 9.78149Z" fill="#1B1B1B"/>
<path fill-rule="evenodd" clip-rule="evenodd" d="M105.895 16.0138C105.691 16.9606 105.231 17.833 104.563 18.5351C103.331 19.3043 101.909 19.7163 100.456 19.7249C98.5557 19.5985 96.7759 18.7508 95.4804 17.3552C94.1849 15.9597 93.4717 14.1218 93.4867 12.2177C93.4867 7.96827 96.008 4.25713 100.569 4.25713C101.568 4.23079 102.554 4.48153 103.42 4.98156C104.285 5.48159 104.994 6.21139 105.47 7.09006C105.6 7.50704 105.781 7.90659 106.008 8.27989C106.136 8.27989 106.532 8.27989 106.532 8.15241C106.505 7.87511 106.402 7.61063 106.235 7.38752L105.966 4.73873C104.231 3.87762 102.334 3.39481 100.399 3.32227C95.4839 3.32227 90.7104 6.76427 90.7104 11.9485C90.7104 17.3877 95.8805 20.7023 100.399 20.7023C102.429 20.7126 104.431 20.2315 106.235 19.3L106.759 16.2546C106.886 15.858 106.49 15.858 106.235 15.858C106.235 15.8863 105.895 15.8863 105.895 16.0138Z" fill="#1B1B1B"/>
<path fill-rule="evenodd" clip-rule="evenodd" d="M113.459 9.78133C112.712 9.76253 111.968 9.89191 111.27 10.162C110.573 10.4321 109.936 10.8376 109.396 11.3551C108.856 11.8726 108.424 12.4919 108.125 13.1772C107.825 13.8625 107.665 14.6003 107.652 15.348C107.631 16.0396 107.748 16.7285 107.996 17.3743C108.245 18.0202 108.619 18.6101 109.098 19.1098C109.576 19.6095 110.149 20.0089 110.784 20.2848C111.419 20.5606 112.102 20.7073 112.794 20.7164C113.552 20.7392 114.307 20.6095 115.014 20.3349C115.721 20.0604 116.366 19.6467 116.91 19.1183C117.454 18.5898 117.887 17.9575 118.182 17.2588C118.478 16.5601 118.63 15.8091 118.629 15.0506C118.626 13.6712 118.083 12.3478 117.117 11.3632C116.151 10.3787 114.838 9.81091 113.459 9.78133ZM113.318 19.8666C110.938 19.8666 109.748 17.0336 109.748 15.0789C109.748 12.8267 110.541 10.5746 112.921 10.5746C115.754 10.5746 116.505 13.4925 116.505 15.7446C116.505 17.9968 115.584 19.8666 113.318 19.8666Z" fill="#1B1B1B"/>
<path fill-rule="evenodd" clip-rule="evenodd" d="M123.941 19.5972C122.354 19.5972 122.354 19.0589 122.354 18.5348V2.21717C122.354 2.07552 122.354 1.82056 122.213 1.82056C122.087 1.88237 121.954 1.92532 121.816 1.94804L120.088 2.61378C119.167 3.01039 118.898 3.01039 118.898 3.27951C118.898 3.54864 119.295 3.53448 119.691 3.67612C120.484 4.07273 120.484 4.20021 120.484 5.65917V18.4073C120.484 19.4697 120.229 19.5972 119.167 19.5972C118.771 19.5972 118.771 19.5972 118.771 19.9938V20.1213C118.771 20.2629 118.771 20.2629 118.898 20.2629H123.941C123.941 20.2629 124.068 20.2629 124.068 19.9938C124.068 19.7247 124.068 19.5972 123.941 19.5972Z" fill="#1B1B1B"/>
<path fill-rule="evenodd" clip-rule="evenodd" d="M128.587 18.5348V2.21717C128.587 2.07552 128.587 1.82056 128.445 1.82056C128.307 1.84327 128.174 1.88623 128.048 1.94804L126.334 2.61378C125.4 3.01039 125.13 3.01039 125.13 3.27951C125.13 3.54864 125.4 3.53448 125.796 3.67612C126.731 4.07273 126.731 4.20021 126.731 5.65917V18.4073C126.731 19.4697 126.334 19.5972 125.315 19.5972C125.045 19.5972 124.904 19.5972 124.904 19.9938V20.1213C124.904 20.2629 125.045 20.2629 125.173 20.2629H130.173V19.5972C128.587 19.5972 128.587 19.0589 128.587 18.5348Z" fill="#1B1B1B"/>
<path fill-rule="evenodd" clip-rule="evenodd" d="M134.961 18.5352V10.1781C134.961 10.0365 134.961 9.78149 134.819 9.78149C134.681 9.80421 134.548 9.84717 134.422 9.90898L132.694 10.4472C131.774 10.8438 131.504 10.9713 131.504 11.0988C131.504 11.2263 131.774 11.4954 132.17 11.6371C133.091 11.9062 133.091 12.0337 133.091 13.4926V18.4078C133.091 19.4701 132.694 19.5976 131.674 19.5976C131.419 19.5976 131.278 19.5976 131.278 19.9942V20.1217C131.278 20.2633 131.419 20.2633 131.547 20.2633H136.547V19.5976C134.961 19.5976 134.961 19.0593 134.961 18.5352Z" fill="#1B1B1B"/>
<path fill-rule="evenodd" clip-rule="evenodd" d="M133.898 5.40416C134.249 5.40043 134.584 5.2585 134.83 5.0092C135.077 4.75991 135.215 4.42337 135.215 4.07268C135.228 3.89585 135.202 3.71841 135.141 3.5522C135.079 3.38599 134.983 3.23484 134.858 3.10883C134.733 2.98282 134.583 2.88484 134.418 2.82145C134.252 2.75806 134.075 2.7307 133.898 2.7412C133.545 2.7412 133.206 2.88149 132.956 3.13119C132.707 3.38089 132.566 3.71955 132.566 4.07268C132.587 4.41921 132.733 4.74624 132.979 4.99169C133.224 5.23714 133.551 5.38392 133.898 5.40416Z" fill="#1B1B1B"/>
<path fill-rule="evenodd" clip-rule="evenodd" d="M148.091 18.6627V12.8269C148.091 10.8438 147.156 9.78149 145.173 9.78149C143.719 9.95534 142.363 10.6081 141.32 11.6371V10.0365C141.32 9.90898 141.32 9.78149 141.193 9.78149C141.066 9.78149 139.465 10.5747 138.275 10.9713C138.133 10.9713 138.133 11.0988 138.133 11.2405C138.133 11.3821 138.133 11.3679 138.275 11.4954L139.068 11.6371C139.196 11.6371 139.465 11.9062 139.465 12.4303V18.4078C139.465 19.4701 139.068 19.5976 138.048 19.5976C137.779 19.5976 137.652 19.5976 137.652 19.9942V20.1217C137.652 20.2633 137.779 20.2633 137.921 20.2633H142.964V19.5976C141.363 19.5976 141.363 19.0593 141.363 18.5352V12.4303C142.121 11.6672 143.124 11.1957 144.196 11.0988C145.924 11.0988 146.321 11.9062 146.321 13.3651V18.9318C146.321 19.5976 145.258 19.5976 144.904 19.5976C144.834 19.601 144.767 19.6305 144.718 19.6802C144.668 19.73 144.638 19.7964 144.635 19.8667C144.635 19.8667 144.635 20.2633 144.904 20.2633H149.805V19.5976C148.884 19.5976 148.091 19.5976 148.091 18.6627Z" fill="#1B1B1B"/>
<path fill-rule="evenodd" clip-rule="evenodd" d="M155.117 14.2858C153.799 13.6201 152.595 13.096 152.595 12.1612C152.595 11.2263 153.403 10.5747 154.593 10.5747C155.782 10.5747 156.321 11.6371 156.59 12.6994H157.227L157.369 10.4472C156.482 10.0276 155.517 9.80072 154.536 9.78149C152.68 9.78149 150.952 10.7022 150.952 12.6994C150.952 14.6966 152.68 15.3482 154.012 16.0139C154.663 16.2831 155.726 17.0763 155.726 17.8695C155.754 18.1376 155.723 18.4087 155.634 18.6631C155.544 18.9175 155.4 19.1488 155.21 19.3401C155.02 19.5314 154.789 19.678 154.536 19.7691C154.282 19.8602 154.011 19.8935 153.743 19.8667C153.204 19.7952 152.697 19.5702 152.283 19.2186C151.868 18.867 151.564 18.4036 151.406 17.8837C151.406 17.6145 151.406 17.4871 151.278 17.3596L150.612 17.4871L150.74 19.6117C150.74 20.0084 152.156 20.6741 153.799 20.6741C154.729 20.7169 155.638 20.3939 156.331 19.7742C157.025 19.1546 157.448 18.2877 157.51 17.3596C157.51 15.8865 156.321 15.0507 155.117 14.2858Z" fill="#1B1B1B"/>
</svg>
