<svg width="136" height="24" viewBox="0 0 136 24" fill="none" xmlns="http://www.w3.org/2000/svg">
<path d="M7.95312 18.0576C7.95312 21.5938 6.28519 23.5005 2.82554 23.5005C2.0712 23.5015 1.32006 23.4024 0.591797 23.2058L0.774504 20.1646C1.30396 20.3303 1.85526 20.4157 2.41003 20.418C3.95125 20.418 4.6143 19.6636 4.6143 17.9633V1.16602H7.95312V18.0576Z" fill="#1B1B1B"/>
<path d="M21.5089 18.234C21.5089 21.6966 19.5257 23.4883 16.3165 23.4883C13.1722 23.5001 11.1948 21.7084 11.1948 18.234V1.14209H14.3981V18.1515C14.3981 19.7576 15.1201 20.3529 16.2841 20.3529C17.4481 20.3529 18.1731 19.7635 18.1731 18.1515V1.16272H21.5089V18.234Z" fill="#1B1B1B"/>
<path d="M35.4448 23.1849H32.047L31.325 18.1752H27.6444L26.9194 23.1849H23.5718L27.4027 1.16284H31.6521L35.4448 23.1849ZM29.4361 5.88081L28.0835 15.1635H30.883L29.5304 5.88081H29.4361Z" fill="#1B1B1B"/>
<path d="M48.6913 23.1849H45.4202L41.0471 8.58605H40.9822V23.1849H37.8379V1.16284H41.548L45.4821 14.2824H45.544V1.16284H48.6913V23.1849Z" fill="#1B1B1B"/>
<path d="M65.1704 6.13437V7.64318L61.9612 7.80231V6.47916C61.9612 4.71103 61.2982 3.9301 60.0104 3.9301C58.7226 3.9301 58.0595 4.71692 58.0595 6.16384V18.1842C58.0595 19.6311 58.6872 20.4179 59.978 20.4179C61.2687 20.4179 61.8964 19.6311 61.8964 17.8689V14.1087H60.0104V11.0115H65.1704V18.2137C65.1704 21.5495 63.249 23.5004 59.9161 23.5004C56.5831 23.5004 54.7237 21.5495 54.7237 18.2137V6.13143C54.7148 2.7985 56.6038 0.847656 59.9072 0.847656C63.2107 0.847656 65.1704 2.7985 65.1704 6.13437Z" fill="#1B1B1B"/>
<path d="M78.8793 23.1849H75.4845L74.7625 18.1752H71.0642L70.3392 23.1849H67.0151L70.8225 1.16284H75.0719L78.8793 23.1849ZM72.8677 5.88081L71.515 15.1635H74.3057L72.9531 5.88081H72.8677Z" fill="#1B1B1B"/>
<path d="M91.2418 6.7413V7.14797C91.2418 9.60273 90.5198 11.0497 88.7576 11.6479V11.7098C90.8204 12.3404 91.7045 13.9759 91.7045 16.8698V17.6271C91.7045 21.2429 89.7536 23.1938 86.1643 23.1938H81.2695V1.16284H85.9256C89.3853 1.16284 91.2418 3.11368 91.2418 6.7413ZM84.6201 4.24529V10.254H85.6574C87.2606 10.254 87.9236 9.43771 87.9236 7.58117V6.85623C87.9236 5.06452 87.2605 4.24529 85.8136 4.24529H84.6201ZM84.6201 13.3394V20.1172H86.0671C87.6702 20.1172 88.3951 19.2685 88.3951 17.412V16.1713C88.3951 14.2205 87.6702 13.3394 85.9079 13.3394H84.6201Z" fill="#1B1B1B"/>
<path d="M101.909 23.1849L99.2569 13.8728H97.7128V23.1849H94.3887V1.16284H99.2009C102.787 1.16284 104.738 3.11368 104.738 6.73246V8.30315C104.738 10.6312 103.922 12.2697 102.381 13.1508L105.431 23.1849H101.909ZM97.7216 4.24529V10.7903H99.0772C100.68 10.7903 101.405 9.94162 101.405 8.08508V6.95053C101.405 5.09399 100.68 4.24529 99.0772 4.24529H97.7216Z" fill="#1B1B1B"/>
<path d="M111.189 23.1849H107.853V1.16284H111.189V23.1849Z" fill="#1B1B1B"/>
<path d="M124.149 4.24529H118.111V10.475H122.985V13.5575H118.111V20.1025H124.149V23.1849H114.775V1.16284H124.149V4.24529Z" fill="#1B1B1B"/>
<path d="M130.317 20.0406H135.896V23.1849H126.981V1.16284H130.317V20.0406Z" fill="#1B1B1B"/>
</svg>
