<svg width="124" height="31" viewBox="0 0 124 31" fill="none" xmlns="http://www.w3.org/2000/svg">
<path d="M0.201172 0.0368652H4.72845C8.17536 0.0368652 13.9116 0.499883 13.9116 9.27149V10.3261C13.9116 19.8952 8.61265 20.7698 5.14002 20.7698H4.70273V29.85H0.201172V0.0368652ZM4.95996 17.4515C8.25253 17.4515 9.28146 15.6251 9.28146 11.1493V8.47407C9.28146 4.92427 8.38115 3.35516 4.95996 3.35516H4.72845V17.4772H4.95996V17.4515Z" fill="#1B1B1B"/>
<path d="M17.23 0.0368652H21.783V21.8759C21.783 25.58 22.5032 26.6861 24.3039 26.6861C26.0788 26.6861 26.9276 25.58 26.9276 21.8759V0.0368652H31.4292V20.6669C31.4292 29.4385 26.9019 30.0815 24.3039 30.0815C21.7315 30.0815 17.23 29.4127 17.23 20.6669V0.0368652Z" fill="#1B1B1B"/>
<path d="M36.4448 0.0368652H41.358C44.7277 0.0368652 50.3868 0.448436 50.3868 8.55124V9.29721C50.3868 13.8245 49.0492 16.654 46.5283 17.9145L51.3128 29.8243H46.5283L42.5669 18.6862H40.8692V29.8243H36.4448V0.0368652ZM41.538 15.4193C44.702 15.4193 45.8338 14.1332 45.8338 10.1204V7.75382C45.8338 4.69276 44.8306 3.32943 41.538 3.32943H40.8692V15.4193H41.538Z" fill="#1B1B1B"/>
<path d="M54.7344 0.0368652H65.7696V3.58667H59.2359V12.5126H64.2777V16.0624H59.2359V26.2745H65.924V29.8243H54.7344V0.0368652Z" fill="#1B1B1B"/>
<path d="M72.5601 0.0368652H83.9554V3.58667H77.0873V12.5126H82.4892V16.0624H77.0873V29.8243H72.5601V0.0368652Z" fill="#1B1B1B"/>
<path d="M86.9912 0.0368652H91.5185V26.2745H97.6663V29.8243H86.9912V0.0368652Z" fill="#1B1B1B"/>
<path d="M100.521 0.0368652H105.049V29.85H100.521V0.0368652Z" fill="#1B1B1B"/>
<path d="M113.614 14.8277L108.187 0.0368652H113.023L115.801 9.55445H115.981L118.759 0.0368652H123.415L117.962 14.8534L123.415 29.85H118.759L115.93 20.281H115.621L112.663 29.85H108.161L113.614 14.8277Z" fill="#1B1B1B"/>
</svg>
