<svg width="128" height="68" viewBox="0 0 128 68" fill="none" xmlns="http://www.w3.org/2000/svg">
<path d="M94.9889 43.8359C94.9128 43.8232 94.8494 43.8486 94.8367 43.9121C90.3959 56.3416 77.8348 65.305 63.0153 65.305C48.1958 65.305 35.6347 56.3416 31.194 43.9121C31.1813 43.8486 31.1178 43.8232 31.0544 43.8359C30.991 43.8486 30.9656 43.9121 30.9783 43.9756C35.216 57.6493 47.9547 67.5903 63.0153 67.5903C78.0759 67.5903 90.8146 57.6493 95.0524 43.9756C95.0778 43.9121 95.0524 43.8486 94.9889 43.8359Z" fill="#1B1B1B"/>
<path d="M32.5136 20.5386C32.5517 20.5386 32.5897 20.5132 32.6151 20.4751C34.5437 16.7678 37.2462 13.4669 40.5324 10.7372C40.2913 11.0546 40.0756 11.372 39.898 11.7148C39.6062 12.1718 39.3524 12.6416 39.1748 13.1368C39.1621 13.1621 39.1748 13.2256 39.2001 13.251C39.3651 13.4542 39.3016 13.67 39.2001 13.8985C39.0479 14.254 38.8956 14.5968 38.7561 14.9396C38.6419 15.2189 38.5404 15.4982 38.6292 15.8156C38.7053 16.1203 38.515 16.3743 38.1724 16.5012C38.1978 16.6409 38.1724 16.8313 38.2485 16.9329C38.5404 17.3392 38.3881 17.6566 38.0963 17.9613C38.0963 18.0374 38.0455 18.1136 38.0963 18.1898C38.2739 18.431 38.6419 18.6595 38.515 18.9262C38.6038 19.015 38.8449 18.4564 38.7053 18.3168C38.5657 18.1644 38.6292 18.0247 38.6673 17.8851C39.1494 16.8186 38.6926 15.5363 39.4666 14.5714C39.7077 14.7111 39.5808 15.4347 39.2382 15.8664C39.2636 15.9045 39.327 15.9553 39.327 15.968C39.3016 16.4631 39.6442 16.9456 39.3143 17.4407C39.3778 17.9994 39.6569 18.7357 39.6442 19.4213C39.6442 19.7006 39.3524 20.1196 39.2636 20.2212C38.9971 20.5005 39.1367 20.9068 39.1875 20.9829C39.2382 21.0591 39.5047 21.4908 39.5173 21.6304C40.5831 21.5796 41.9154 21.5289 42.7528 21.5162C42.7528 21.5162 42.6005 20.9068 42.5498 20.6274C42.499 20.3608 42.4356 20.1323 42.5751 19.8657C42.664 19.7133 42.6893 19.4721 42.7528 19.2943C42.9177 18.8754 43.1334 18.4564 43.3364 18.0628C43.3745 17.9867 43.4633 17.9105 43.5394 17.8724C43.7297 17.7835 43.7932 17.6439 43.7932 17.4661C43.7932 17.2376 43.9327 16.9837 44.1358 16.7678C44.1992 16.7043 44.2753 16.7297 44.3388 16.6663C44.4022 16.6155 44.4783 16.4758 44.5418 16.425C44.6686 16.3616 44.7828 16.2981 44.897 16.2854C45.1635 16.2346 45.468 16.1838 45.6076 15.8918C45.6456 15.9045 45.7217 15.9553 45.7598 15.9426C46.1531 15.8156 46.5211 15.8918 46.889 16.0442C46.889 16.0442 46.9398 15.9807 46.9652 15.9426C47.0667 16.0569 47.1555 16.2346 47.2951 16.2727C47.3585 16.2981 47.4346 16.2981 47.4981 16.2727C47.5488 16.26 47.5742 16.2346 47.6503 16.2092C47.7264 16.1965 47.7645 16.1838 47.866 16.2473C47.8914 16.26 47.9675 16.3489 47.9802 16.3743H48.031C48.031 16.3743 48.0563 16.3743 48.1071 16.3235C48.1325 16.2981 48.069 16.1838 48.069 16.1711C48.0563 16.133 48.1071 16.1203 48.1325 16.0949C48.2466 16.0315 48.1578 15.8664 48.1832 15.8537C48.3735 15.8283 48.9318 15.676 48.9952 15.7648C49.1856 16.0188 49.4266 15.8283 49.6169 15.9045C49.7819 15.9807 49.9976 16.0569 50.0864 16.1965C50.1879 16.3743 50.3275 16.3996 50.4797 16.3362C50.7969 16.1965 50.9111 16.2854 51.0126 16.5774C51.0253 16.6155 51.0507 16.6663 51.0887 16.6917C51.241 16.8313 51.241 16.8694 51.1649 17.0344C51.038 17.3138 51.038 17.7073 51.1141 17.9993C51.1903 18.3168 51.4567 18.6722 51.3552 18.8754C51.444 18.9896 51.6851 18.9008 51.7739 18.9008C51.812 18.9008 51.8627 18.8881 51.8627 18.8881C51.8881 18.6595 52.2053 18.3294 52.256 18.0374C52.3829 17.3899 52.0911 16.5647 52.4717 15.9934C52.662 15.7648 52.9539 15.5236 53.2457 15.4601C53.804 15.3332 54.2227 14.8507 54.8444 14.9142C55.0728 14.7238 55.2885 14.6476 55.7198 14.6476C55.796 14.6476 55.9355 14.5841 55.9355 14.5841C55.8848 14.3937 56.0624 14.4191 56.1639 14.3937C56.5065 14.3048 56.6461 14.0128 56.4938 13.7081C56.4431 13.4288 56.5446 13.2129 56.6207 12.9336C56.6461 12.8447 56.7349 12.832 56.7603 12.8701C56.7603 13.0352 56.6714 13.2891 56.7603 13.3907C56.7222 13.4288 56.7222 13.4922 56.6588 13.5811C56.6841 13.5938 56.6714 13.6827 56.7349 13.6446C56.8998 13.3145 57.4962 13.3399 57.3185 12.7559C57.3439 12.7432 57.382 12.7305 57.4073 12.7051C57.4708 12.7813 57.6357 12.8193 57.6357 12.9844C57.8134 13.0225 57.9149 12.6924 58.0164 12.6035C58.1179 12.5019 58.3082 12.5019 58.4351 12.3496C58.5366 12.3496 58.6888 12.2988 58.8284 12.3496C58.8918 12.3623 59.1456 12.3496 59.3105 12.3496C59.3359 12.3369 59.3359 12.3242 59.3105 12.2988C59.1963 12.2861 59.0314 12.2734 58.968 12.248C58.8918 12.2226 58.8157 12.2099 58.7269 12.1972C58.7523 12.1338 58.6761 12.1084 58.6761 12.0957C59.2725 12.0449 59.5643 12.2861 60.6555 12.2734C60.6681 12.1845 60.4271 12.1718 60.3636 12.1084C60.3002 12.0576 60.2494 11.956 60.2875 11.8925C60.5413 11.5117 61.1757 11.3085 61.6959 11.372C62.1146 11.4101 62.7743 11.4355 62.9647 11.2831C63.4341 11.2831 63.967 11.2069 63.9797 11.3593C63.7132 11.4609 63.4595 11.499 63.2184 11.5497C63.1423 11.5624 63.0535 11.6386 63.0281 11.7148C63.0154 11.7656 63.0788 11.8418 63.1169 11.9052C63.2184 12.083 63.3834 12.0449 63.5356 11.9941C64.2588 11.7402 65.0074 11.8544 65.756 11.8544C65.9717 11.8671 65.8321 11.791 65.8575 11.7529C66.2635 11.8164 66.2508 11.6767 66.5807 11.7275C66.6188 11.7021 66.6188 11.6767 66.5934 11.6513C66.5173 11.5878 66.4412 11.5117 66.365 11.4609C66.4031 11.3847 66.2762 11.3974 66.4285 11.245C66.5046 11.1562 66.4158 11.1308 66.3523 11.1562C66.0986 11.2958 65.8448 11.4355 65.5657 11.5751C65.4134 11.5243 65.1724 11.4228 65.0201 11.3974C64.5253 11.3085 64.132 11.1054 64.0304 10.6229C64.1573 10.5468 64.2842 10.4833 64.4365 10.4071C64.17 10.3817 63.967 10.3563 63.764 10.3309C63.764 10.3055 63.7767 10.2801 63.7767 10.2547C64.0051 10.2547 64.2335 10.2674 64.4618 10.242C64.5253 10.242 64.6522 10.1786 64.6522 10.1278C64.6775 10.0643 64.6014 9.97543 64.538 9.93734C64.3096 9.79768 64.1446 9.75959 63.967 9.75959C62.9393 9.72151 62.1019 9.92464 61.2899 10.1278C61.607 9.97543 62.5079 9.64533 62.8632 9.58185C63.0027 9.55646 63.193 9.58185 63.2692 9.51837C63.5356 9.30254 63.8274 9.31523 64.1066 9.39141C64.8044 9.54376 65.4896 9.72151 66.1747 9.91195C66.6315 10.0389 67.0629 10.0897 67.5196 9.91195C67.748 9.82308 67.9764 9.83577 68.2048 9.87386C68.357 9.89925 68.5474 9.95004 68.7504 9.88655C68.8772 9.84847 69.0802 9.79768 69.2071 9.68342C69.2959 9.60724 69.2833 9.48028 69.2959 9.35332C68.5347 8.99783 68.4458 8.93435 68.6108 8.7566C68.0779 8.52807 67.3166 8.32494 67.0375 7.86788C66.771 7.42352 66.8345 7.23307 66.8345 7.23307C66.6061 6.96646 66.0478 6.44592 65.8448 6.15391C65.2739 6.47131 64.6014 6.80141 63.9543 6.34435C63.6625 6.15391 63.4849 5.8492 63.764 5.5445C63.4722 5.41753 63.1423 5.44293 62.9012 5.10013C62.787 4.93508 62.5333 4.83352 62.3176 4.77003C61.8608 4.65577 61.3787 4.57959 60.9092 4.52881C60.8585 4.52881 60.8331 4.54151 60.8077 4.5669C60.795 4.59229 60.795 4.61768 60.795 4.65577C60.8077 4.70655 60.8204 4.78273 60.8077 4.80812C60.7696 4.90969 60.6935 4.90969 60.5286 4.94778C60.6681 5.12552 60.5666 5.13822 60.6428 5.23979C60.592 5.30327 60.1479 5.46832 59.983 5.48102C59.9703 5.5191 59.9449 5.55719 59.9322 5.58258C60.1606 5.65876 60.4905 5.93807 60.4778 6.24278C60.3636 6.78871 59.2471 6.75062 58.7903 6.80141C58.6508 7.53778 58.7142 7.81709 57.788 7.84249C57.7499 7.84249 57.6738 7.7917 57.6484 7.75361C57.5469 7.58856 57.5342 7.4616 57.4581 7.29655C57.4327 7.24577 57.4327 7.1569 57.4581 7.11881C57.585 6.92837 57.6103 6.71253 57.7626 6.5094C57.1155 6.29356 56.3162 6.33165 55.9102 5.69685C55.6691 5.5445 54.8444 5.27788 54.5399 5.17631C54.6033 5.07474 54.6794 4.93508 54.7682 4.78273C54.6541 4.70655 54.2988 4.51611 54.2988 4.51611C54.5779 4.2241 55.1743 3.62739 57.179 3.22111C57.8514 3.11954 58.5366 3.03067 59.2217 2.9545C58.9299 3.04337 58.6381 3.10685 58.4858 3.2592C58.4985 3.24651 58.5873 3.55121 58.7142 3.56391C58.9045 3.5766 59.1583 3.46234 59.3486 3.46234C59.6912 3.50043 60.0464 3.602 60.4017 3.65278C60.1733 3.28459 59.7419 3.2719 59.6024 2.9291C60.6555 2.82753 61.7086 2.77675 62.7743 2.77675C62.8378 2.85293 62.9139 2.91641 63.0027 2.9545C63.0788 2.99258 63.193 3.00528 63.2819 3.01798C63.2438 3.05606 63.193 3.06876 63.1042 3.13224C63.2565 3.15763 63.396 3.23381 63.4595 3.19572C63.7513 2.99258 63.7006 3.23381 63.7767 3.37347C63.4849 3.41155 63.2184 3.44964 62.952 3.47503C62.9647 3.53852 62.9773 3.5893 63.0027 3.69087C63.0027 3.69087 62.6348 3.65278 62.3937 3.62739C62.1526 3.61469 61.7466 3.50043 61.5944 3.50043C61.4421 3.51312 61.3279 3.70356 61.3279 3.70356C61.3279 3.70356 61.404 3.83052 61.7086 3.80513C62.0258 3.79244 62.343 3.84322 62.584 3.9067C62.8378 3.98288 63.3707 4.27489 63.3707 4.27489C63.4214 4.32567 63.5737 4.52881 63.6371 4.5542C64.1954 4.74464 64.7537 4.97317 65.3246 5.10013C65.35 5.07474 65.3627 5.04935 65.3754 5.01126C65.185 4.85891 65.0074 4.71925 64.8171 4.5669L64.8425 4.52881C65.1724 4.70655 65.5149 4.897 65.8956 5.10013C65.7433 4.74464 66.0732 4.84621 66.2382 4.71925C65.9336 4.54151 65.6672 4.38915 65.4007 4.21141C65.3373 4.16062 65.2866 4.05905 65.2612 3.98288C65.2612 3.98288 65.3627 3.9067 65.3881 3.9194C66.1874 4.19871 66.3777 4.46533 66.5046 4.43994C67.0375 4.28758 67.2786 4.2241 67.2659 4.16062C67.0375 3.93209 66.0225 3.5766 65.35 3.28459L65.3627 3.23381C65.4896 3.24651 65.6038 3.2592 65.7433 3.2592C65.6164 3.01798 65.4261 2.87832 65.1597 2.80214C66.1874 2.86562 67.2151 2.97989 68.2428 3.11954C68.154 3.15763 67.951 3.37347 67.8749 3.38616C67.7988 3.38616 67.6973 3.34807 67.6211 3.36077C67.4943 3.39886 67.3674 3.44964 67.342 3.53852C67.3166 3.66548 67.3293 3.83052 67.4054 3.94479C67.6846 4.33837 68.154 4.59229 68.4712 4.94778C68.7631 5.29057 69.131 5.48102 69.5878 5.55719C70.0065 5.63337 70.3364 5.82381 70.7424 5.97616C70.8819 5.72224 71.0088 5.60798 71.123 5.40484L71.0342 5.2144C71.1611 5.08744 71.3768 5.08744 71.4529 4.93508C71.5417 4.75734 71.6305 4.66847 71.8462 4.70655C72.2776 4.79543 72.7344 4.80812 73.1277 4.60499C73.3561 4.50342 73.6098 4.43994 73.889 4.40185C75.9444 5.04935 77.9364 5.88729 79.8269 6.90298C79.7889 7.38543 79.4717 7.34734 79.4717 7.41082C79.4717 7.487 79.8396 7.63935 79.865 7.91866C79.8777 8.02023 79.865 8.09641 79.8904 8.1091C80.2837 8.32494 80.271 8.24876 80.5882 8.60425C80.639 8.65504 80.7658 8.61695 80.8039 8.68043C80.9815 8.99783 81.5525 9.17558 81.6667 8.70582C81.6667 8.65504 81.8063 8.60425 81.7555 8.55347C81.9078 8.69312 82.263 8.93435 82.466 8.94704C82.631 8.94704 83.1004 9.31523 83.2146 9.49298C83.24 9.54376 83.4557 9.67072 83.4303 9.7342C83.4176 9.78499 83.1385 9.81038 83.0877 9.84847C82.872 9.77229 82.9609 9.61994 82.8467 9.49298C82.6563 9.39141 82.466 9.28984 82.2757 9.17557C82.1108 9.36602 82.225 9.55646 82.4787 9.72151C82.8213 9.97543 83.0877 10.2674 83.443 10.5468C83.4049 10.5975 83.24 10.5721 83.1004 10.6229C83.037 10.6483 83.1004 10.7118 83.0497 10.7499C82.9735 10.8007 82.8593 10.8515 82.8847 10.8768C83.2907 11.1054 83.1004 11.2323 83.075 11.3593C82.9862 11.2577 82.8974 11.0546 82.834 11.1054C83.0116 11.6005 82.9735 11.4482 82.6056 11.8164C82.5675 11.8798 82.7325 12.0449 82.7705 12.1211C82.6817 12.2607 82.5929 12.375 82.5041 12.5273C82.3518 12.4893 82.0727 12.3496 81.9204 12.4258C81.9204 12.5273 82.1615 12.6924 82.2757 12.8193C81.9458 12.9844 81.5398 12.667 81.3114 13.0352C81.4637 13.2764 81.7048 13.3399 81.9712 13.3272C82.0854 13.3272 82.2123 13.3399 82.3011 13.3907C82.669 13.5811 83.1004 13.8604 83.2273 14.0001C83.3669 14.1651 83.443 14.6222 83.849 15.2316C83.0877 15.2951 82.4153 15.422 81.7428 15.3713C81.3114 15.3332 81.4383 15.4982 81.3241 15.5744C81.1972 15.6633 81.0196 15.549 81.0577 15.7268C81.0704 15.8029 81.2353 15.8664 81.286 15.9172C81.7301 16.5139 82.06 17.0852 81.9839 17.8597C81.9712 18.0882 82.0854 18.1136 82.1615 18.1263C82.4153 18.1644 82.428 18.3421 82.4914 18.5072C82.5422 18.6342 82.5675 18.7738 82.6183 18.9389C82.7959 18.9135 83.0116 18.9262 83.1258 18.8373C83.3669 18.6595 83.5191 18.7357 83.6968 18.9135C83.8363 19.0531 83.8998 19.1039 84.1155 19.2943C84.255 19.4848 84.5468 18.7992 85.3208 18.7357C85.6126 18.6976 85.638 18.3294 85.638 18.0882C85.5746 17.7962 85.7649 17.4407 85.4096 17.2122C85.3716 17.1741 85.3843 17.0344 85.3843 16.9456C85.3843 16.7297 85.3716 16.4504 85.5492 16.2854C85.7903 16.0949 85.9806 15.841 85.6634 15.5871C85.5365 15.4982 85.4858 15.2697 85.5492 15.1427C85.7649 14.9777 86.1328 15.1681 86.3739 15.2316C86.4881 15.257 86.45 14.9904 86.5135 14.8761C86.5642 14.7745 86.6277 14.7111 86.6911 14.6349C87.0083 14.7111 87.224 14.965 87.4397 15.1935C87.7061 15.4728 87.9853 15.7521 88.2771 15.9934C88.9242 16.5266 89.6982 16.8821 89.9265 17.7454C89.6982 17.7835 89.419 17.6693 89.3175 17.847V17.8851C89.3429 17.974 89.3429 18.0755 89.3936 18.1263C89.6347 18.3041 89.8885 18.4564 90.1422 18.6215C90.1169 18.5453 90.1042 18.4691 90.0915 18.3929C90.0534 18.2533 90.028 18.1263 90.028 17.974C90.028 17.9359 90.028 17.9232 90.028 17.8978V17.8851C90.028 17.847 90.028 17.8089 90.0407 17.7708C90.0407 17.7454 90.0534 17.72 90.0534 17.6819C90.0915 17.4788 90.0407 17.1995 89.7743 17.0218C89.6855 16.971 89.6728 16.8186 89.622 16.6917L89.6474 16.679C89.7489 16.7551 89.8631 16.8313 89.9773 16.9202L90.0407 16.8313L90.0534 16.8059C89.6855 16.4758 89.3683 16.0949 88.9496 15.841C88.5055 15.6252 88.3025 15.2062 87.9599 14.9142C87.6046 14.673 87.3128 14.3556 87.2367 13.9747C87.2748 13.9239 87.3128 13.8477 87.3636 13.8731C87.9092 14.2286 88.3279 14.7365 88.8481 15.0793C89.3683 15.3586 89.825 15.6506 90.0915 16.1838C90.2184 16.4377 90.4594 16.6409 90.6497 16.8694C90.8401 17.0852 91.2715 17.1614 91.373 17.4026C91.4998 17.6946 91.7282 17.8597 91.9693 18.0374C92.4641 18.8119 92.9336 19.5864 93.3523 20.4116C93.3777 20.4497 93.4157 20.4751 93.4538 20.4751C93.5172 20.4751 93.568 20.4243 93.568 20.3481L93.5553 20.2973C90.9416 14.4571 86.7292 9.49298 81.3876 5.95077C76.0205 2.39587 69.6258 0.47876 63.0281 0.47876C56.4304 0.47876 50.0483 2.39587 44.5671 6.02695C39.2255 9.56915 35.0131 14.5206 32.3994 20.3735L32.3867 20.4243C32.3867 20.4751 32.4375 20.5386 32.5136 20.5386ZM83.849 9.68342C84.0013 9.69611 84.1281 9.67072 84.2043 9.72151C84.458 9.88656 84.864 10.077 84.6864 10.4325C84.6737 10.4706 84.4327 10.4833 84.3946 10.4325C84.2043 10.2167 84.0774 10.2801 84.0013 10.496C83.7983 10.4071 83.6206 10.3182 83.443 10.2293L83.4684 10.1786C83.5953 10.204 83.7094 10.242 83.8871 10.2928C83.849 10.1659 83.8363 10.1024 83.811 10.0135C83.8744 9.98812 83.9378 9.96273 84.0013 9.93734C83.9505 9.86116 83.9251 9.79768 83.849 9.68342Z" fill="#1B1B1B"/>
<path d="M62.9268 2.96704C62.6857 2.97974 62.4066 2.82739 62.1401 3.1194C62.3812 3.13209 63.0029 3.34793 62.9268 2.96704Z" fill="#1B1B1B"/>
<path d="M69.0551 10.0388C68.6872 10.0515 68.3192 10.1277 68.1797 10.2039C67.5579 10.5594 66.9616 10.991 67.0885 11.2196C67.2281 11.4735 67.8625 11.3719 68.2431 11.4989C68.6364 11.6258 69.0044 11.702 69.4358 11.829C69.4484 11.8544 69.1693 11.9051 68.979 11.9051C68.9282 11.9178 68.9029 11.9813 68.979 11.994C69.2962 12.0067 69.6641 11.9813 70.0194 11.9178C70.1336 12.0321 69.956 12.1083 69.9306 12.1845C70.0067 12.1972 70.0828 12.2225 70.1463 12.2479C70.2351 12.2098 70.2605 12.121 70.2985 12.1464C70.4 12.2098 70.2859 12.2987 70.3112 12.3241C70.565 12.5146 70.5396 12.5146 70.7553 12.121C70.6919 12.0702 70.7426 12.0321 70.7172 11.994C70.6538 12.0067 70.5269 12.0575 70.4 12.0702C70.4508 11.9178 70.6919 11.8924 70.5904 11.8036C70.5523 11.7782 70.2859 11.8924 70.1717 11.9305L70.1463 11.8797C70.2478 11.8036 70.5396 11.6766 70.5142 11.6385C70.5015 11.6004 70.3112 11.6766 70.0828 11.5497C70.1209 11.4481 70.2858 11.2957 70.3239 11.1688C69.9052 11.0418 69.5119 10.9275 69.0678 10.7879C69.1693 10.7371 69.1947 10.7244 69.2328 10.699L69.2074 10.6355C69.0297 10.6101 68.6999 10.6736 68.5095 10.6482C68.573 10.4959 68.5476 10.28 69.1313 10.2039C69.0171 10.1785 69.0932 10.0515 69.0551 10.0388Z" fill="#1B1B1B"/>
<path d="M87.6555 16.1077C87.6555 15.9046 87.4525 15.7014 87.3129 15.3459C87.3129 15.5237 87.2114 15.5237 87.2114 15.5999C87.2114 15.803 87.3637 15.9681 87.6555 16.1077Z" fill="#1B1B1B"/>
<path d="M64.4623 10.6992C64.4115 10.7373 64.3354 10.8389 64.2847 10.8516C64.5511 11.0928 64.5892 11.1182 64.9825 11.2959C65.1348 11.2578 65.2743 11.2198 65.4393 11.1817C65.1221 10.9785 64.6526 11.1436 64.4623 10.6992Z" fill="#1B1B1B"/>
<path d="M65.845 10.2801L65.8831 10.1913C65.5278 9.84847 65.0584 9.63263 64.6777 9.69611C64.9188 9.87386 65.2994 10.1405 65.845 10.2801Z" fill="#1B1B1B"/>
<path d="M77.4922 10.8895C77.4922 10.9275 77.5303 11.0418 77.5176 11.0672C77.6952 11.1688 77.6698 11.1815 77.8475 11.283C77.8982 11.3592 77.9236 11.5243 77.8728 11.6893H77.8601C77.8094 11.8798 77.8601 11.9686 77.9109 12.0194C77.9997 12.0829 78.1647 12.0829 78.2788 12.0067C78.5072 11.8798 78.8498 11.5497 79.2558 11.2069C79.167 10.7879 78.9259 10.6101 78.7737 10.4578C78.7991 10.407 78.8371 10.3181 78.8371 10.3054C78.6849 10.1658 78.5707 10.0642 78.4438 9.94995C78.2027 10.0134 77.9363 10.1531 77.7459 10.3943C77.7079 10.4451 77.9363 10.4705 77.7713 10.6736C77.6825 10.7625 77.6444 10.8133 77.4922 10.8895Z" fill="#1B1B1B"/>
<path d="M78.4569 8.76929C78.3554 8.92164 78.2665 9.074 78.1777 9.23904C78.2665 9.28983 78.4061 9.34061 78.5076 9.44218C78.5837 9.51836 78.6218 9.61993 78.6853 9.7215L78.7614 9.68341C78.7106 9.75958 78.6979 9.75958 78.6218 9.89924C78.7741 9.84846 78.7994 9.89924 78.8756 9.87385C78.9009 9.93733 78.9136 10.0135 78.939 10.077C79.0278 10.0262 79.1166 9.98811 79.2435 9.92463C79.1801 10.5213 79.6115 10.242 79.8399 10.2547C80.0809 10.4579 80.1824 10.5467 80.3474 10.8134C80.322 10.8261 80.3093 10.8514 80.2839 10.8768H79.9287C79.9667 10.9657 79.9667 11.08 80.0175 11.08C80.3474 11.1054 80.1571 11.3974 79.9287 11.5243C80.2459 11.6005 80.4869 11.6513 80.6899 11.7021C80.5377 11.829 80.4108 11.6513 80.1317 12.2607C80.7661 11.956 80.6265 12.2988 80.8422 12.2099C81.2482 12.0322 82.2125 12.0703 82.3267 11.8544C82.3267 11.8544 82.3267 11.8163 82.3267 11.7783C82.2506 11.7402 82.1744 11.7021 82.0856 11.6767C82.2125 11.0038 81.7684 10.788 81.4766 11.0419C81.0706 10.3563 80.3093 10.1278 79.6749 9.67071C79.6749 9.64532 79.6495 9.54375 79.6622 9.45488C79.6749 9.15017 79.51 9.0486 79.2308 9.08669C78.9009 9.13748 78.7994 9.0613 79.0151 8.7312C78.7868 8.76929 78.5964 8.76929 78.4569 8.76929Z" fill="#1B1B1B"/>
<path d="M88.0487 17.4405C88.0487 17.4659 88.0994 17.4659 88.1248 17.4786C88.2009 17.2755 88.2898 17.3897 88.2771 17.2501C88.2517 17.0088 88.0106 16.5899 87.7061 16.2725C87.6427 16.374 87.5158 16.4883 87.5539 16.5518C87.6934 16.8438 87.9726 16.9834 88.0487 17.4405Z" fill="#1B1B1B"/>
<path d="M63.3453 52.393C63.8782 52.1517 64.2588 51.8724 64.8932 51.974C65.0074 51.7455 65.3881 51.5296 65.7052 51.5804C66.0351 51.6185 66.3904 51.8217 66.7076 51.7328C67.0629 51.5042 67.4562 51.3519 67.6338 50.9075C67.8876 50.7298 68.2175 50.5774 68.3951 50.3362C68.8011 49.6506 69.1817 49.3459 69.4863 48.673C69.8035 48.0382 69.6766 47.2003 70.552 46.9844C70.7677 46.921 70.9327 46.6924 71.1103 46.5401C71.6305 46.0322 72.303 45.7402 72.8739 45.2959C73.2419 45.0166 73.6606 44.8007 73.9144 44.3056C74.2062 43.6962 74.3204 43.6581 74.3711 42.9852C74.3711 42.8963 74.3965 42.3377 74.4219 41.8552C70.8946 41.7664 66.7964 41.7537 63.2692 41.7537C58.5873 41.7537 53.8928 41.8298 49.1855 41.9822C49.2617 42.1345 49.3124 42.2869 49.3632 42.4012C49.6677 43.0868 49.9214 43.6454 50.4797 43.9755C51.2537 44.4325 51.8246 45.1054 52.3956 45.8037C52.4463 45.8672 52.4717 45.9688 52.4717 46.0449C52.4971 46.5147 52.5352 46.9717 52.5225 47.4415C52.5098 47.6446 52.3575 47.8351 52.3322 48.0382C52.2941 48.2667 52.3195 48.4064 52.3068 48.7111C52.3448 49.1428 52.2941 49.5744 52.2433 50.0061C52.218 50.2727 52.1926 50.5266 52.1418 50.7933C52.053 51.1741 51.8627 51.5296 52.0023 51.9486C52.015 51.9994 52.0276 52.0756 52.0023 52.101C51.7612 52.3422 51.9008 52.6215 51.9642 52.8627C52.1799 53.7134 51.812 54.4624 51.5836 55.2242C51.5328 55.4019 51.3044 55.275 51.5328 55.7066C51.7104 56.0621 51.85 56.443 51.6851 56.862C51.6851 56.9763 51.6597 57.2048 51.7358 57.3444C51.8246 57.5095 51.7358 57.4714 51.7358 57.5222C51.6851 57.8777 51.7739 57.9539 52.0023 57.9792V57.4079C52.0276 57.4079 52.0784 57.3444 52.1672 57.4587C52.2433 58.0427 52.1418 57.8142 52.2687 58.614C52.1545 58.5125 52.0911 58.2713 52.0023 58.1062C51.9515 58.0681 51.85 58.0935 51.85 58.157C51.85 58.5379 51.9388 58.6394 51.9261 58.7156C51.8754 58.9822 51.8373 58.9188 51.7231 59.1981C51.7358 59.3885 52.0023 59.2362 52.0911 59.2996C52.1418 59.3377 52.1165 59.4774 52.1292 59.579C52.0276 59.5663 51.9769 59.579 51.9515 59.617C51.9135 59.6678 51.9896 59.7567 52.015 59.8202C52.3448 60.747 52.8397 61.1787 52.8397 61.1787C53.7532 62.0674 53.9562 62.1563 54.7302 62.4102C55.39 62.626 55.3265 62.4229 55.3392 62.3848C55.3519 62.3594 55.2377 62.3213 55.022 62.1309C54.7936 61.915 54.8951 61.8769 54.6541 61.7373L54.2353 61.458C54.3622 61.4707 54.5652 61.5722 54.5779 61.5215C54.5145 61.4199 54.3369 61.2421 54.2861 60.9755C54.3749 60.9628 54.4891 60.912 54.5652 60.8993C54.616 60.8486 54.6033 60.747 54.5906 60.6073C54.7048 60.5185 54.9332 60.3661 55.0347 60.2518C55.0601 60.2011 55.0601 60.0868 55.0474 59.9725C54.7556 59.7821 54.3369 59.8329 54.4257 59.4393C54.4891 59.325 54.8063 59.325 54.9712 59.2616C54.9966 59.16 55.0601 59.0457 55.0347 58.9568C54.9586 58.576 55.3392 58.6394 55.6183 58.5506C55.5295 58.449 55.4788 58.3093 55.4153 58.2966C55.0093 58.2205 54.9712 58.1697 55.0093 57.6872C55.2884 57.8523 55.5803 57.9285 55.8975 57.9539C56.0243 57.9666 56.0878 57.9158 56.0243 57.738C55.9482 57.446 56.202 57.2302 56.4938 57.2683C56.8364 57.3064 57.1916 57.3444 57.5342 57.3444C57.8133 57.3571 58.2828 57.0143 58.3209 56.7731C58.3336 56.6589 58.2067 56.6842 58.1813 56.6208C58.1179 56.4938 58.1179 56.3668 58.1432 56.3161C58.2067 56.2018 58.2321 56.0875 58.2194 56.0621C58.1179 55.9225 57.9022 55.7701 57.7753 55.6178C57.7753 55.6178 57.6992 55.5162 57.6865 55.4654C57.6738 55.4273 57.8007 55.3639 57.8133 55.3512C57.8514 55.3258 57.9783 55.5924 58.0037 55.6051C58.0671 55.6559 58.2447 55.6305 58.3462 55.7828C58.6127 56.151 58.9553 55.9733 59.2344 56.151C59.2725 56.1637 59.3613 56.151 59.412 56.1256C59.9576 55.7955 60.4651 55.5162 60.9726 55.1099C61.1249 55.0338 60.6808 55.0338 60.592 55.0338C61.2264 54.6275 61.0361 54.5259 61.0868 54.5259C61.2518 54.5005 61.5055 54.437 61.5055 54.5513H61.5182C61.1376 54.8941 61.2391 54.8814 61.2518 54.8814C61.2645 54.8814 61.3787 54.8687 61.5182 54.7291C61.8481 54.3863 62.1399 54.0562 62.5586 53.8276C62.749 53.7261 62.8758 53.561 62.8631 53.2817C62.8505 52.9262 62.952 52.558 63.3453 52.393Z" fill="#1B1B1B"/>
<path d="M107.22 25.0711C106.675 25.033 106.116 24.9949 105.571 24.9441C103.325 30.0225 101.079 35.139 98.8335 40.2429C100.153 40.319 101.473 40.4079 102.779 40.4968L103.972 37.6021C106.142 37.7544 108.311 37.9195 110.481 38.0972C110.874 39.1129 111.268 40.1413 111.661 41.1697C112.981 41.2839 114.3 41.3855 115.607 41.5125C113.361 36.0659 111.115 30.6192 108.882 25.198C108.324 25.1472 107.779 25.1091 107.22 25.0711ZM105.279 34.4281C105.926 32.8537 106.573 31.2667 107.22 29.6924C107.867 31.3683 108.514 33.0442 109.174 34.7328C107.88 34.6185 106.586 34.5169 105.279 34.4281Z" fill="#1B1B1B"/>
<path d="M46.597 33.5648C45.3536 30.3146 44.0975 27.0644 42.854 23.8142C41.4711 23.865 40.1008 23.9158 38.7178 23.9793C40.8747 29.1339 43.0317 34.3012 45.1886 39.4939C45.6581 39.4812 46.1275 39.4685 46.5843 39.4431C47.0538 39.4304 47.5232 39.4177 47.98 39.405C50.1369 34.0981 52.2939 28.7911 54.4635 23.5095C53.0805 23.5349 51.7102 23.5603 50.3272 23.5984C49.0965 26.9121 47.8531 30.2384 46.597 33.5648Z" fill="#1B1B1B"/>
<path d="M9.66255 35.431C9.66255 37.6782 8.82515 38.8843 6.85852 39.0875C4.90457 39.2906 4.06717 38.2368 4.06717 35.9896V26.5438C2.82375 26.6707 1.58033 26.8104 0.336914 26.9373V36.4594C0.336914 40.8395 2.51924 42.8963 6.85852 42.4646C11.2105 42.033 13.3928 39.5445 13.3928 35.1644V25.6423C12.1494 25.7439 10.906 25.8582 9.66255 25.9851V35.431Z" fill="#1B1B1B"/>
<path d="M92.7685 30.0096C92.1341 29.743 91.5251 29.5018 91.0557 29.2479C90.2563 28.8289 89.8757 28.3591 89.8757 27.9529C89.8757 27.3942 90.3959 26.9499 91.6012 27.0134C93.9993 27.1276 96.5876 28.6765 97.3235 29.1463C97.3996 29.1971 97.4631 29.2479 97.5519 29.2859V25.566C97.5265 25.5533 97.5011 25.5406 97.4758 25.5152C96.2831 24.8169 93.7455 23.7505 91.6139 23.6489C88.8226 23.5092 86.0186 24.8296 86.0186 28.0163C86.0186 31.622 89.254 32.6631 91.8677 33.7169C92.4513 33.9581 93.0096 34.1866 93.4664 34.4152C94.2784 34.8087 94.6464 35.2531 94.6464 35.6975C94.6464 36.7766 93.8089 37.3099 92.0199 37.0813C90.5228 36.8909 88.6703 36.1037 86.4499 34.6945C86.3738 34.6437 86.3104 34.5929 86.2216 34.5548V38.2748C86.2469 38.2875 86.2723 38.3002 86.2977 38.3256C87.0209 38.7572 89.5839 40.2173 92.0199 40.3442C96.1562 40.5474 98.5289 38.7953 98.5289 35.4816C98.5162 32.2314 95.1919 31.0126 92.7685 30.0096Z" fill="#1B1B1B"/>
<path d="M74.5867 33.6791C75.4368 33.6918 76.2869 33.7172 77.137 33.7299C78.2409 35.6216 79.332 37.526 80.4232 39.4304C81.8189 39.4685 83.2145 39.5193 84.6102 39.5701C83.3668 37.5006 82.1361 35.4311 80.9053 33.3617C82.3264 32.8792 83.9377 31.6858 83.9377 28.7403C83.9377 25.7313 82.2756 23.7254 79.3447 23.6492C76.528 23.573 73.724 23.5095 70.9072 23.4841V39.24C72.1253 39.2527 73.356 39.2654 74.574 39.2907V33.6791H74.5867ZM74.574 26.8359C75.716 26.8613 76.8706 26.8867 78.0125 26.9121C79.7253 26.9502 80.0679 27.9405 80.0679 28.7403C80.0679 29.5529 79.7253 30.5051 78.0125 30.467C76.8706 30.4416 75.716 30.4162 74.574 30.3908V26.8359Z" fill="#1B1B1B"/>
<path d="M33.4653 39.9888C34.6961 39.9253 35.9268 39.8618 37.1702 39.7983V24.0552C35.9268 24.106 34.6834 24.1694 33.4526 24.2329C33.4526 29.4891 33.4526 34.7326 33.4653 39.9888Z" fill="#1B1B1B"/>
<path d="M56.0498 23.4841C56.0498 28.7402 56.0498 33.9837 56.0625 39.2399C60.0846 39.1891 64.1066 39.1764 68.1287 39.2018V35.8754C65.312 35.85 62.508 35.85 59.6912 35.8754V32.8538C61.5817 32.8538 63.4723 32.8411 65.3628 32.8538V29.5274C63.4723 29.5274 61.5817 29.5274 59.6912 29.5401V26.7596C62.4699 26.747 65.2612 26.747 68.0399 26.7596V23.4587C64.0559 23.4206 60.0465 23.4333 56.0498 23.4841Z" fill="#1B1B1B"/>
<path d="M26.6645 33.3997C24.4822 30.6447 22.2998 27.8769 20.1175 25.1473L20.0795 25.0965C18.8868 25.1853 17.6941 25.2869 16.4888 25.3758V41.1316C17.7195 41.0301 18.9502 40.9412 20.1936 40.8396V31.2922C22.5663 34.2757 24.9389 37.272 27.3116 40.281L27.3496 40.3445C28.3647 40.281 29.367 40.2175 30.3694 40.1667V24.4109C29.1386 24.4744 27.9079 24.5505 26.6645 24.6267V33.3997Z" fill="#1B1B1B"/>
<path d="M120.872 38.7066V26.2517C119.642 26.1248 118.411 26.0105 117.18 25.8962C117.18 31.1524 117.193 36.3959 117.193 41.6521C120.542 41.9568 123.879 42.2996 127.216 42.6678V39.3668C125.097 39.1383 122.991 38.9224 120.872 38.7066Z" fill="#1B1B1B"/>
</svg>
