<svg width="171" height="35" viewBox="0 0 171 35" fill="none" xmlns="http://www.w3.org/2000/svg">
<path d="M0.591309 0.863525H18.6681V7.63801H0.591309V0.863525ZM0.591309 27.3912H17.7868V34.1657H0.591309V27.3912ZM0.591309 26.337V11.8893L18.6681 8.6922V23.1398L0.591309 26.337Z" fill="#1B1B1B"/>
<path d="M26.0991 23.1915L32.3552 12.2521H27.2052V9.78076H36.6929V10.04L30.4541 20.9448H36.3473V23.4161H26.0991V23.1915Z" fill="#1B1B1B"/>
<path d="M40.3564 16.6246C40.3564 12.598 43.4672 9.62549 47.4074 9.62549C51.3477 9.62549 54.4584 12.598 54.4584 16.6246C54.4584 20.6513 51.3477 23.6238 47.4074 23.6238C43.4672 23.6238 40.3564 20.634 40.3564 16.6246ZM51.6069 16.6246C51.6069 14.0669 49.9306 12.1141 47.442 12.1141C44.9534 12.1141 43.2771 14.0669 43.2771 16.6246C43.2771 19.1824 44.9534 21.1352 47.442 21.1352C49.9306 21.1352 51.6069 19.1478 51.6069 16.6246Z" fill="#1B1B1B"/>
<path d="M62.4248 17.0912C61.7508 16.4344 60.8176 15.2247 60.8176 15.2247C60.8176 15.2247 61.0077 16.7282 61.0077 17.7133V23.4336H58.3809V9.67725H58.6574L65.5355 16.1407C66.1923 16.7628 67.1428 18.0071 67.1428 18.0071C67.1428 18.0071 66.9699 16.4517 66.9699 15.5185V9.79822H69.5968V23.5719H69.3203L62.4248 17.0912Z" fill="#1B1B1B"/>
<path d="M75.4209 9.78076H79.6204C83.8199 9.78076 86.7924 12.5631 86.7924 16.6071C86.7924 20.651 83.8199 23.4334 79.6204 23.4334H75.4209V9.78076ZM79.4821 20.9448C82.5065 20.9448 83.9063 19.1302 83.9063 16.5898C83.9063 14.0494 82.5237 12.2348 79.4821 12.2348H78.2551V20.9276H79.4821V20.9448Z" fill="#1B1B1B"/>
<path d="M92.1675 9.78076H101.206V12.2521H95.0017V16.5898H100.48V18.992H95.0017V20.9448H101.5V23.4161H92.1675V9.78076Z" fill="#1B1B1B"/>
<path d="M117.157 23.4161H113.891L111.644 19.9598C111.385 19.9943 111.109 20.0116 110.849 20.0116H109.882V23.4161H107.082V9.78076H110.849C114.651 9.78076 116.95 11.5954 116.95 14.9308C116.95 17.0564 116.017 18.3871 114.323 19.1475L117.157 23.4161ZM110.798 17.5749C113.096 17.5749 114.081 16.8318 114.081 14.948C114.081 13.0297 113.027 12.2521 110.798 12.2521H109.916V17.5749H110.798Z" fill="#1B1B1B"/>
<path d="M120.821 9.78076H123.828L126.178 15.0172C126.697 16.175 127.232 18.1106 127.232 18.1106C127.232 18.1106 127.751 16.2096 128.287 15.0172L130.585 9.78076H133.298L127.319 23.5544H127.042L120.821 9.78076Z" fill="#1B1B1B"/>
<path d="M140.539 9.67725H140.799L147.037 23.4509H144.082L143.426 21.8955H137.895L137.239 23.4509H134.525L140.539 9.67725ZM142.44 19.5279L141.455 17.143C141.058 16.1752 140.626 14.7063 140.626 14.7063C140.626 14.7063 140.228 16.1752 139.831 17.143L138.846 19.5279H142.44Z" fill="#1B1B1B"/>
<path d="M155.92 17.0912C155.246 16.4344 154.313 15.2247 154.313 15.2247C154.313 15.2247 154.503 16.7282 154.503 17.7133V23.4336H151.876V9.67725H152.153L159.031 16.1407C159.688 16.7628 160.638 18.0071 160.638 18.0071C160.638 18.0071 160.466 16.4517 160.466 15.5185V9.79822H163.092V23.5719H162.816L155.92 17.0912Z" fill="#1B1B1B"/>
<path d="M168.277 12.1657C168.398 12.1657 168.536 12.1138 168.536 11.8546C168.536 11.6645 168.363 11.5781 168.277 11.5781H167.966V12.1657H168.277ZM169.279 13.3235H168.536L168.26 12.736H167.983V13.3235H167.24V10.9732H168.26C168.882 10.9732 169.279 11.4053 169.279 11.8546C169.279 12.1311 169.158 12.4422 168.882 12.615L169.279 13.3235ZM170.005 12.1657C170.005 10.9732 169.21 10.2992 168.139 10.2992C167.085 10.2992 166.324 10.9732 166.324 12.1657C166.324 13.3063 167.085 13.9802 168.139 13.9802C169.21 14.0148 170.005 13.3063 170.005 12.1657ZM165.754 12.1657C165.754 10.7831 166.825 9.78076 168.156 9.78076C169.487 9.78076 170.593 10.7658 170.593 12.1657C170.593 13.5655 169.487 14.5506 168.156 14.5506C166.843 14.516 165.754 13.5309 165.754 12.1657Z" fill="#1B1B1B"/>
</svg>
